<?xml version="1.0" encoding="UTF-8"?>
<!-- Created with Inkscape (http://www.inkscape.org/) -->
<svg width="225" height="225" version="1.1" viewBox="0 0 225 225" xmlns="http://www.w3.org/2000/svg" xmlns:cc="http://creativecommons.org/ns#" xmlns:dc="http://purl.org/dc/elements/1.1/" xmlns:rdf="http://www.w3.org/1999/02/22-rdf-syntax-ns#">
 <metadata>
  <rdf:RDF>
   <cc:Work rdf:about="">
    <dc:format>image/svg+xml</dc:format>
    <dc:type rdf:resource="http://purl.org/dc/dcmitype/StillImage"/>
    <dc:title/>
   </cc:Work>
  </rdf:RDF>
 </metadata>
 <path d="m57.154 221.64c-24.562-8.1912-44.174-28.129-52.634-53.509-3.7276-11.182-4.0607-16.807-4.0461-68.349l0.015918-56.164 74.618-43.244 15.751 10.533v56.836c0 36.496 0.79447 59.516 2.22 64.324 3.9544 13.337 15.275 26.051 29.914 33.597 14.721 7.5883 15.187 7.444 18.944-5.871 1.1028-3.9083 1.9703-32.593 1.9818-65.535l0.0204-58.584 63.346-34.594 15.215 8.7777 0.0157 56.734c0.0177 63.594-0.95772 70.137-13.233 88.827-8.5846 13.07-12.124 15.78-48.657 37.255-47.231 27.763-55.704 31.36-75.543 32.069-12.422 0.44387-19.728-0.36775-27.927-3.1021zm51.768-18.671c5.738-2.6862 13.041-7.3666 16.229-10.401l5.7967-5.517-9.6302-3.8225c-22.248-8.8308-38.902-26.694-46.737-50.129-1.1168-3.3405-2.5541-29.922-3.194-59.071l-1.1634-52.997-52.355 32.166 0.63806 53.795c0.60647 51.131 0.85724 54.24 5.0649 62.792 16.618 33.777 53.475 48.107 85.35 33.185zm63.569-37.944c12.978-6.1071 25.664-20.733 29.476-33.986 2.3409-8.1372 2.8365-20.47 2.4184-60.184l-0.52582-49.95-41.27 23.573-1.1245 58.154c-0.61848 31.985-1.8271 60.165-2.6858 62.622-2.0396 5.8373 0.92389 5.7877 13.711-0.22955z" fill="#d2ecf7" stroke-width="1.9755"/>
 <path d="m60.239 221.82c-20.185-6.3746-39.978-24.165-49.339-44.348l-5.2669-11.356-0.51326-60.57-0.51326-60.57 71.775-41.093 13.757 7.335 0.98262 60.569c0.88548 54.581 1.3514 61.256 4.7131 67.52 8.9576 16.69 18.79 25.507 36.157 32.425l8.4439 3.3632 3.3476-7.4681c2.871-6.405 3.4398-16.232 3.9954-69.031l0.64782-61.563 60.619-32.698 13.747 6.6244v59.135c0 55.272-0.27043 59.865-4.1406 70.318-7.9143 21.375-16.117 28.786-60.712 54.852-22.158 12.951-44.649 24.873-49.979 26.493-11.806 3.5873-36.459 3.6202-47.721 0.0637zm49.632-15.238c5.5939-2.0893 13.225-7.1342 17.53-11.589 6.8444-7.083 7.2378-8.0148 3.8504-9.1177-27.614-8.9907-46.192-27.799-52.806-53.459-2.3623-9.165-3.0458-23.086-3.0458-62.04 0-27.623-0.43994-50.223-0.97765-50.223-0.53771 0-13.435 7.703-28.66 17.118l-27.682 17.118 0.65532 52.885c0.65073 52.515 0.69203 52.964 5.9029 64.198 15.547 33.515 50.715 48.002 85.234 35.11zm60.481-36.676c12.543-4.3189 27.245-18.141 33.012-31.037 4.5144-10.095 4.7112-12.495 5.2955-64.6 0.33375-29.764-6e-3 -54.116-0.75632-54.116-0.74972 0-11.377 5.8762-23.616 13.058l-22.253 13.058-0.67268 58.931c-0.36996 32.412-1.3944 60.941-2.2765 63.399-1.9188 5.3459-0.83053 5.4721 11.267 1.3067z" fill="#00b1e2" stroke-width="1.9755"/>
</svg>
